<?xml version="1.0" encoding="UTF-8"?>
<svg id="Layer_1" data-name="Layer 1" xmlns="http://www.w3.org/2000/svg" viewBox="0 0 36.2 10.72">
  <defs>
    <style>
      .cls-1 {
        fill: #f1444c;
        stroke-width: 0px;
      }
    </style>
  </defs>
  <path class="cls-1" d="m4.36.06v.3c-.33,0-.59.05-.76.11-.17.06-.29.18-.35.35-.06.17-.09.44-.09.8v7.44c0,.32.03.55.08.72.05.16.16.27.3.32.15.05.36.07.63.07h.84c.38,0,.72-.07,1.01-.21.29-.14.54-.34.76-.61.22-.27.39-.59.53-.98.14-.39.24-.83.3-1.32h.34c-.03.32-.04.75-.04,1.27,0,.22,0,.53.02.93.01.4.04.82.08,1.26-.5-.02-1.07-.03-1.7-.04-.63,0-1.19,0-1.68,0h-.9c-.36,0-.76,0-1.19,0-.43,0-.86,0-1.3.01-.44,0-.85.01-1.25.02v-.3c.32-.02.57-.06.73-.12.16-.06.27-.18.32-.35.05-.18.08-.44.08-.8V1.62c0-.36-.03-.63-.08-.8-.05-.17-.16-.29-.32-.35-.16-.06-.41-.1-.73-.11V.06c.25,0,.56.02.95.03.38,0,.8.01,1.24.01.4,0,.8,0,1.2-.01.39,0,.72-.02.97-.03Z"/>
  <path class="cls-1" d="m12.51,2.67c.68,0,1.28.14,1.81.41.53.27.94.7,1.26,1.29.31.59.47,1.37.47,2.33s-.16,1.74-.47,2.33-.73,1.02-1.26,1.28c-.53.27-1.13.4-1.81.4s-1.28-.13-1.82-.4c-.53-.27-.95-.69-1.26-1.28-.31-.59-.46-1.37-.46-2.33s.15-1.74.46-2.33c.31-.59.72-1.02,1.26-1.29.53-.27,1.14-.41,1.82-.41Zm2.39-2.67v.37h-4.84v-.37h4.84Zm-2.39,2.97c-.46,0-.84.29-1.13.88-.29.59-.44,1.54-.44,2.86s.15,2.27.44,2.85c.29.58.67.87,1.13.87s.83-.29,1.12-.87c.3-.58.44-1.53.44-2.85s-.15-2.27-.44-2.86c-.3-.59-.67-.88-1.12-.88Z"/>
  <path class="cls-1" d="m19.8.46v2.44h1.89v.3h-1.89v5.88c0,.35.06.61.19.75.13.15.31.22.55.22s.43-.09.62-.26c.19-.17.35-.46.5-.86l.27.12c-.15.48-.38.88-.69,1.2-.31.32-.75.48-1.31.48-.33,0-.62-.04-.85-.13-.23-.08-.43-.2-.6-.36-.22-.23-.36-.5-.44-.81-.07-.31-.11-.73-.11-1.26V3.19h-1.3v-.3h1.3V.84c.35,0,.68-.04.99-.1.3-.06.6-.15.87-.28Z"/>
  <path class="cls-1" d="m25.93,2.67c.68,0,1.28.14,1.81.41.53.27.95.7,1.26,1.29.31.59.47,1.37.47,2.33s-.16,1.74-.47,2.33-.73,1.02-1.26,1.28c-.53.27-1.13.4-1.81.4s-1.28-.13-1.82-.4c-.53-.27-.95-.69-1.26-1.28-.31-.59-.46-1.37-.46-2.33s.15-1.74.46-2.33c.3-.59.72-1.02,1.26-1.29.53-.27,1.14-.41,1.82-.41Zm0,.3c-.46,0-.84.29-1.13.88-.29.59-.44,1.54-.44,2.86s.15,2.27.44,2.85c.29.58.67.87,1.13.87s.83-.29,1.12-.87c.3-.58.44-1.53.44-2.85s-.15-2.27-.44-2.86c-.3-.59-.67-.88-1.12-.88Z"/>
  <path class="cls-1" d="m33.25,2.67c.41,0,.77.06,1.06.18.3.12.51.22.65.31.33.25.54.09.61-.47h.32c-.02.29-.03.62-.04,1.01,0,.39-.01.91-.01,1.56h-.32c-.05-.36-.14-.72-.28-1.06-.14-.34-.34-.63-.61-.86-.27-.23-.62-.35-1.05-.35-.31,0-.56.09-.76.27-.2.18-.3.43-.3.75,0,.3.09.55.27.78.18.22.41.43.69.62.28.19.57.4.88.63.35.24.67.48.95.72.28.24.5.51.66.8.17.29.25.63.25,1.03,0,.45-.13.84-.38,1.16-.25.32-.58.57-.99.74-.41.17-.86.26-1.35.26-.27,0-.51-.02-.72-.07-.22-.05-.41-.11-.58-.19-.13-.07-.24-.13-.35-.19-.1-.06-.21-.11-.32-.15-.1-.05-.18-.03-.26.06-.07.09-.13.24-.17.44h-.32c.02-.32.03-.7.04-1.15,0-.45.01-1.05.01-1.8h.32c.07.54.17,1.02.32,1.42.14.41.35.73.63.96.28.23.63.35,1.06.35.19,0,.37-.04.54-.12.17-.08.31-.2.43-.37.11-.17.17-.39.17-.68,0-.43-.15-.79-.44-1.08-.3-.29-.66-.59-1.11-.92-.33-.25-.65-.49-.94-.72-.29-.24-.53-.5-.71-.8-.18-.3-.27-.64-.27-1.05,0-.44.11-.81.34-1.1.23-.29.52-.51.89-.66.37-.15.77-.23,1.19-.23Z"/>
</svg>